<svg xmlns="http://www.w3.org/2000/svg" width="512" height="512" viewBox="0 0 512 512" fill="none" stroke="#4977b1" stroke-width="36" stroke-linecap="round" stroke-linejoin="round">
  <g id="reward-glyph">
    <path d="M128 64h171l85 85v277a21 21 0 0 1-21 21H128a21 21 0 0 1-21-21V85a21 21 0 0 1 21-21z"/>
    <path d="M299 64v85h85"/>
    <path d="m245 192 22 45 50 7-36 36 9 50-45-23-45 23 9-50-36-36 50-7 22-45z"/>
    <path d="M171 395h149"/>
  </g>
  <g id="outbound-arrow">
    <path d="M420 320c31 9 47 38 47 75"/>
    <path d="m467 395-30-24"/>
    <path d="m467 395-25 30"/>
  </g>
</svg>
