<svg xmlns="http://www.w3.org/2000/svg" viewBox="0 0 24 24" fill="none" stroke="#4977b1" stroke-width="1.7" stroke-linecap="round" stroke-linejoin="round">
  <path d="M4 4h16a1 1 0 0 1 1 1v14a1 1 0 0 1-1 1H4a1 1 0 0 1-1-1V5a1 1 0 0 1 1-1z"/>
  <path d="M3 12.7h18"/>
  <path d="M7 9.8h10l-1.2-3H8.2L7 9.8z"/>
  <circle cx="8.5" cy="10.9" r="0.7" fill="#4977b1" stroke="none"/>
  <circle cx="15.5" cy="10.9" r="0.7" fill="#4977b1" stroke="none"/>
  <path d="M5.5 14.9v1.8"/>
  <path d="M5.5 18.2h.01"/>
  <path d="M9 15.4h9"/>
  <path d="M9 17.9h7"/>
</svg>
