<svg xmlns="http://www.w3.org/2000/svg" width="512" height="512" viewBox="0 0 512 512" fill="none" stroke="#4977b1" stroke-width="36" stroke-linecap="round" stroke-linejoin="round">
  <g id="reward-glyph">
    <path d="M100 100H276a24 24 0 0 1 24 24V408a24 24 0 0 1-24 24H100a24 24 0 0 1-24-24V124a24 24 0 0 1 24-24z"/>
    <path d="M188 166 203 209 249 210 213 238 226 282 188 256 150 282 163 238 127 210 173 209z"/>
    <path d="M130 360H246"/>
  </g>
  <g id="outbound-arrow">
    <path d="M384 250V80"/>
    <path d="M384 80 348 130"/>
    <path d="M384 80 420 130"/>
  </g>
</svg>
